<svg xmlns="http://www.w3.org/2000/svg" xmlns:xlink="http://www.w3.org/1999/xlink" width="320" height="100" viewBox="0 0 320 100">
  <defs>
    <clipPath id="clip-path">
      <rect id="矩形_3" data-name="矩形 3" width="320" height="100" transform="translate(-2079 5753)" fill="#fff" stroke="#707070" stroke-width="1"/>
    </clipPath>
    <clipPath id="clip-path-2">
      <rect id="矩形_2" data-name="矩形 2" width="274.276" height="77.894" fill="none"/>
    </clipPath>
  </defs>
  <g id="蒙版组_1" data-name="蒙版组 1" transform="translate(2079 -5753)" clip-path="url(#clip-path)">
    <g id="组_2" data-name="组 2" transform="translate(-2056.138 5764.053)">
      <g id="组_1" data-name="组 1" clip-path="url(#clip-path-2)">
        <path id="路径_1" data-name="路径 1" d="M79.3,40.226c.869,20.913-14.906,38.55-35.235,39.4S6.557,64.2,5.688,43.285,20.594,4.735,40.923,3.89,78.435,19.313,79.3,40.226" transform="translate(-2.902 -1.981)" fill="#f1ddad"/>
        <path id="路径_2" data-name="路径 2" d="M84.484,14.048a1.076,1.076,0,0,0-.64-.179,1.016,1.016,0,0,0-.82.419,1.385,1.385,0,0,0-.263.954l2.251-.089a1.345,1.345,0,0,0-.527-1.106" transform="translate(-42.485 -7.12)" fill="#701f21"/>
        <path id="路径_3" data-name="路径 3" d="M77.836,36.842A38.965,38.965,0,1,0,41.052,77.836,38.946,38.946,0,0,0,77.836,36.842M6.148,30.772l.2.043,1.174.254-.29,1.342-.027.126-.034-.007L5.832,32.24l.16-.744Zm4.274.922,3.106.671.315.068-.047.217-.256,1.185-.014.065-1.642-.354-2.432-.525-.428-.092L7.96,32.7l.316-1.468,1.519.328ZM62.1,34.227a24.494,24.494,0,0,1-2.428,3.145,20.065,20.065,0,0,1-2.447,2.266c-1.82,1.417-3.792,2.7-5.68,4.025a34.137,34.137,0,0,1-5.777,3.455c-.367.162-.74.313-1.119.45-.058.021-.114.046-.172.066-1.289.448-.2,1.078.671.774.084-.029.165-.061.248-.091a12.259,12.259,0,0,1-.018,5.21,13.064,13.064,0,0,1-.72,2.42,4.3,4.3,0,0,1,.962.216c.068.025.134.052.2.081a2.07,2.07,0,0,1,.933.78,4.773,4.773,0,0,1,.269,2.952c-.176,1.911.314,3.751.206,5.633a2.25,2.25,0,0,1-1.745,2.208,10.084,10.084,0,0,1-9.363-2.535,1.946,1.946,0,0,1-1.071.444c-1.212.143-2.994.317-4.046-.386a10.242,10.242,0,0,1-8.849,2.99c-3.3-.541-1.977-3.912-2.1-6.284a31.629,31.629,0,0,1-.207-3.248,3.336,3.336,0,0,1,.21-1.017,2.033,2.033,0,0,1,.474-.722c-.133-.068-.268-.133-.4-.2-.6-.212-1.187-.442-1.759-.7a4.62,4.62,0,0,1-.788-.452,5.476,5.476,0,0,1-1.417-7.271c.328-.467.667-.928,1.01-1.386.621-.83,1.262-1.649,1.91-2.46a16.309,16.309,0,0,1,10.268-5.795,17.941,17.941,0,0,1,2.533-.525,22.372,22.372,0,0,1,8.859.473,1.3,1.3,0,0,0,.7-.03h.007a1.2,1.2,0,0,0,.85-.408q.144-.256.291-.516l.281-.493c.889-1.551,1.863-3.176,2.926-4.8.381-.562.75-1.111,1.086-1.614.632-.911,1.292-1.814,1.98-2.7.85-1.089,1.745-2.144,2.682-3.143.772-.823,1.576-1.6,2.408-2.337.107-.094.212-.19.32-.282,3.9-3.331,8.454-5.5,13.711-5.11a40.864,40.864,0,0,1-3.706,12.98c-.415.885-.869,1.759-1.364,2.609-.262.45-.539.89-.825,1.325M48.774,16.451a14.733,14.733,0,0,1-.322,2.232c-.006.026-.011.052-.017.078-.1.484-.209.967-.306,1.446-.077.384-.155.769-.229,1.154-.056.291-.109.582-.161.874-.151.847-.281,1.7-.36,2.552a8.781,8.781,0,0,0,.043,2.915,67.129,67.129,0,0,0-4.775,6.777c-.093-.894-.3-1.9-.373-2.463a21.677,21.677,0,0,1,.239-5.821,15.384,15.384,0,0,1,2.159-5.579q.323-.536.675-1.052c.407-.6.837-1.179,1.278-1.73h0c.385-.481.777-.943,1.169-1.378-.2-.022-.828.563-1.014.69-.22.15-.442.3-.663.45l-.027.018c-.11.076-.221.151-.33.23a10.888,10.888,0,0,0-1.28,1.112,12.253,12.253,0,0,0-1.01,1.157,14.932,14.932,0,0,0-2.144,3.9c-1.047,2.812-.908,5.615-1.147,8.552a14.468,14.468,0,0,1-.693,4.14q-.722-.1-1.452-.162c.938-2.325.737-5.207.952-7.66.268-3.064.6-5.753,2.478-8.26.245-.328.5-.649.764-.965.4-.481.825-.946,1.262-1.4.386-.4.78-.8,1.189-1.18l.069-.062a37.859,37.859,0,0,1,3.765-3.052,5.8,5.8,0,0,1,.261,2.486M5.287,43.393l.688-.165.38-.091,3.019-.725,1.29-.309v-.022l-3.2-.767-.672-.161-.53-.127-1.037-.249L5.184,38.89l1.657-.455.59-.162,3.211-.88v-.033L7.757,36.81l-.384-.073L5.62,36.4l-.493-.094L5.091,34.7l1.047.231,1.769.389.172.038,2.515.554.121.027.464.1.787.173L13,36.44l.006.278.029,1.27,0,.136-2.3.663-1.009.291-.66.191-.726.21L7.2,39.81v.021l5.91,1.412.025,1.1.014.621L7.275,44.511l-1.3.341-.1.027-.547.144ZM39.281,6.606a2.651,2.651,0,0,1,4.142-.013,3.957,3.957,0,0,1,.628,2.3l-3.772.149a1.619,1.619,0,0,0,.348.942,1.122,1.122,0,0,0,.95.4.948.948,0,0,0,.923-.82l1.51.187A2.369,2.369,0,0,1,41.6,11.549a2.406,2.406,0,0,1-2.464-1.266,3.713,3.713,0,0,1-.406-1.573,3.345,3.345,0,0,1,.55-2.1m-2.86.486a3.954,3.954,0,0,1,1.016,2.162l-1.4.3-2.285.494a1.615,1.615,0,0,0,.505.867,1.121,1.121,0,0,0,1,.234.949.949,0,0,0,.768-.966l.28-.014,1.239-.062a2.424,2.424,0,0,1-.626,1.439,2.721,2.721,0,0,1-1.437.74,2.406,2.406,0,0,1-2.646-.821,3.727,3.727,0,0,1-.67-1.479,3.343,3.343,0,0,1,.179-2.167A2.358,2.358,0,0,1,34.088,6.5a3.419,3.419,0,0,1,.553-.072,2.216,2.216,0,0,1,1.78.665M23.569,10.556l1.762,1.98.811.91.019-.009L25.9,12.106l-.483-2.44,1.313-.634,1.258,1.509,1.2,1.438.019-.009L28.851,9.9l-.3-1.748L29.9,7.5,30.1,8.981l.624,4.445-1.313.633-2.391-2.8-.072-.084-.018.009.024.124.709,3.594-1.314.634-2.075-2.194-2.031-2.148Zm-5.906,4.9a3.092,3.092,0,0,1,.984-1.382,3.37,3.37,0,0,1,1.451-.836,1.813,1.813,0,0,1,1.433.3l-.893,1.144a.963.963,0,0,0-1.258.179q-.78.686-.468,1.041a.394.394,0,0,0,.474.068q.3-.118,1.168-.572a4.849,4.849,0,0,1,1.435-.578,1.621,1.621,0,0,1,.4-.013,1.431,1.431,0,0,1,.96.516,1.627,1.627,0,0,1,.416,1.08,1.937,1.937,0,0,1-.007.275,2.476,2.476,0,0,1-.574,1.253,4.372,4.372,0,0,1-.512.533,3.058,3.058,0,0,1-2.054.881,1.743,1.743,0,0,1-.455-.068,2.2,2.2,0,0,1-.7-.333l.977-1.162a1.114,1.114,0,0,0,1.52-.125,1.323,1.323,0,0,0,.534-.806.512.512,0,0,0-.141-.384c-.155-.177-.414-.164-.777.042a9.062,9.062,0,0,1-2.035.934,1.831,1.831,0,0,1-.522.046A1.43,1.43,0,0,1,18,16.976a1.483,1.483,0,0,1-.337-1.518m-3.938,4.051a2.357,2.357,0,0,1,2.144-1.1,3.371,3.371,0,0,1,1.464.465c.136.076.272.16.409.255.105.072.21.148.316.232l-1.619,2.19-.625.845a1.614,1.614,0,0,0,.953.317,1.116,1.116,0,0,0,.908-.488A.948.948,0,0,0,17.613,21l.717-.7.373-.363c.024.036.041.071.063.106a2.254,2.254,0,0,1,.291,2.02,2.59,2.59,0,0,1-.1.252,3.423,3.423,0,0,1-.364.621,2.455,2.455,0,0,1-2.2,1.174,2.5,2.5,0,0,1-.327-.044c-.018,0-.034-.009-.051-.013a3.728,3.728,0,0,1-1.429-.654c-.084-.062-.153-.129-.23-.195a3.45,3.45,0,0,1-.859-1.039L13.687,22l-.2.164a2.953,2.953,0,0,1-.2-.506,2.357,2.357,0,0,1,.438-2.144m-2.894,5.083a1.916,1.916,0,0,1,.226-.15,1.506,1.506,0,0,1,1.036-.124,4.967,4.967,0,0,1,.767.265c.048.02.093.038.144.06l1.828.793.128.055,1.291.56-.6,1.377-1.6-.694-.387-.168-.687-.3a4.106,4.106,0,0,0-1.169-.378.889.889,0,0,0-.19.014.776.776,0,0,0-.622.51,1.484,1.484,0,0,0-.1.324,1.072,1.072,0,0,0,.283.948,3.348,3.348,0,0,0,.951.581c.091.043.18.085.284.13l.318.138,1.529.663.524.227-.325.748-.273.629-.135-.058-.864-.375-1.366-.592-.649-.282L9.4,28.725l-.432-.187.559-1.29.721.313.047.02.009-.019c-.008-.014-.014-.028-.022-.042a2.169,2.169,0,0,1-.125-2.043c.018-.04.04-.074.058-.112a2.3,2.3,0,0,1,.293-.463,1.914,1.914,0,0,1,.326-.309" transform="translate(0 0)" fill="#701f21"/>
        <path id="路径_4" data-name="路径 4" d="M29.85,41.984c.007.017.013.034.02.05a1.484,1.484,0,0,0,.492.563L31.7,40.785c-.017-.012-.033-.018-.049-.029a2.318,2.318,0,0,0-.218-.129,1.189,1.189,0,0,0-.925-.124,1.074,1.074,0,0,0-.54.387,1.017,1.017,0,0,0-.187.9,1.29,1.29,0,0,0,.067.191" transform="translate(-15.271 -20.77)" fill="#701f21"/>
        <path id="路径_5" data-name="路径 5" d="M68.583,123.974a.722.722,0,0,0-.208-.269c-.67-.561-2.42-.279-3.256-.228l-.008,0a1.261,1.261,0,0,0-.324.1,1.1,1.1,0,0,0-.553,1.093v.024c-.005.28.02.571.025.833a7.5,7.5,0,0,0,.028,1.569c.258,1.023,1.259.846,2.059.832a5.821,5.821,0,0,0,1.745-.067c.806-.305.6-1.362.591-2.043a5.419,5.419,0,0,0-.1-1.842" transform="translate(-32.972 -63.33)" fill="#701f21"/>
        <path id="路径_6" data-name="路径 6" d="M62.318,88.972a.565.565,0,0,0,.437-.081.5.5,0,0,0,.207-.324.67.67,0,0,0-.41-.7c-2.769-1.187-5.045-.365-6.765,2.444a.558.558,0,0,0-.073.429.5.5,0,0,0,.239.309.582.582,0,0,0,.234.073.541.541,0,0,0,.089,0,.708.708,0,0,0,.475-.206,5.756,5.756,0,0,1,5.566-1.944" transform="translate(-28.594 -44.837)" fill="#701f21"/>
        <path id="路径_7" data-name="路径 7" d="M107.992,42.1a10.411,10.411,0,0,0-2.65,2.146c-.128.141-.252.291-.376.439a18.993,18.993,0,0,0-1.945,2.828,34.6,34.6,0,0,0-3.509,9.532A12.742,12.742,0,0,1,95.464,63.8c.033-.026.585.081.679.076a2.838,2.838,0,0,0,.724-.156,10.611,10.611,0,0,0,2.814-1.537c1.242-.9,2.417-1.868,3.645-2.783a28.7,28.7,0,0,0,3.444-3.03q.561-.581,1.088-1.193a27.851,27.851,0,0,0,2.281-3.052c.238-.369.476-.739.7-1.119.407-.7.784-1.418,1.124-2.152a56.927,56.927,0,0,0,3.506-9.814s-2.555.369-7.473,3.06" transform="translate(-49.009 -20.042)" fill="#701f21"/>
        <path id="路径_8" data-name="路径 8" d="M81.3,117.294a8.649,8.649,0,0,0-5.381,2.489q.082.172.151.358a7.145,7.145,0,0,1-.026,4.6,8.88,8.88,0,0,0,8.053,2.115c1.516-.474.807-2.45.7-3.642a17.2,17.2,0,0,1,.041-3.2c.074-.8.293-1.848-.367-2.419a1.25,1.25,0,0,0-.148-.11c-.013-.008-.028-.015-.041-.023a2.577,2.577,0,0,0-1.135-.275,10.98,10.98,0,0,0-1.844.108" transform="translate(-38.975 -60.156)" fill="#701f21"/>
        <path id="路径_9" data-name="路径 9" d="M93.623,116.654l0,.048.02-.041-.015-.007" transform="translate(-48.061 -59.887)" fill="#701f21"/>
        <path id="路径_10" data-name="路径 10" d="M51.672,122.285c0-.192,0-.383,0-.574a.679.679,0,0,1,0-.118c0-.024.005-.046.008-.07s.006-.054.009-.082a3.605,3.605,0,0,1,.322-1.146,6.661,6.661,0,0,0-.588-.524,7.352,7.352,0,0,0-1.04-.691,9.965,9.965,0,0,0-5.252-1.1c-.243.014-.557.029-.865.076a2.93,2.93,0,0,0-.471.109,1.25,1.25,0,0,0-.457.244,1.022,1.022,0,0,0-.3.523,2.647,2.647,0,0,0-.039.846c.009.113.019.223.028.326.077.915.247,1.813.271,2.732.027,1.022-.147,2.018-.18,3.036-.048,1.51.635,1.874,2.074,1.925a9.147,9.147,0,0,0,6.871-2.518,7.142,7.142,0,0,1-.392-2.995" transform="translate(-22.068 -60.56)" fill="#701f21"/>
        <path id="路径_11" data-name="路径 11" d="M69.057,16.15a1.388,1.388,0,0,0-.094.987l2.066-.448.135-.029a1.448,1.448,0,0,0-.547-.9,1,1,0,0,0-.162-.1,1.077,1.077,0,0,0-.661-.065,1.015,1.015,0,0,0-.736.553" transform="translate(-35.379 -7.994)" fill="#701f21"/>
        <path id="路径_12" data-name="路径 12" d="M338.923,50.18h5.834l.4-6.693h-5.834l.291-3.046h7.759l.4-5.418H331l-1.778,24.092h16.775l.4-5.418h-7.759Z" transform="translate(-169.013 -17.98)" fill="#701f21"/>
        <path id="路径_13" data-name="路径 13" d="M493.732,50.18h5.834l.4-6.693h-5.834l.29-3.046h7.759l.4-5.418H485.805l-1.778,24.092H500.8l.4-5.418h-7.76Z" transform="translate(-248.487 -17.98)" fill="#701f21"/>
        <path id="路径_14" data-name="路径 14" d="M535.206,50.18h5.834l.4-6.693h-5.834l.29-3.046h7.759l.4-5.418H527.279L525.5,59.116h16.775l.4-5.418h-7.76Z" transform="translate(-269.779 -17.98)" fill="#701f21"/>
        <path id="路径_15" data-name="路径 15" d="M205.654,35.024l-3.222,7.565-2.393-7.565h-5.7l-3.548,7.595-1.972-7.595h-8.146l5.4,24.092H192.2l4.109-10.824,2.837,10.824h6.129l8.4-24.092Z" transform="translate(-92.753 -17.98)" fill="#701f21"/>
        <path id="路径_16" data-name="路径 16" d="M259.726,59.116l1.684-24.092h-8.327L251.4,59.116Z" transform="translate(-129.062 -17.98)" fill="#701f21"/>
        <path id="路径_17" data-name="路径 17" d="M280.42,35.024l-1.685,24.092h8.327l.607-7.9,4.485,8.063h6.322l1.7-24.256h-8.328l-.66,8.646-4.86-8.646Z" transform="translate(-143.096 -17.98)" fill="#701f21"/>
        <path id="路径_18" data-name="路径 18" d="M384.309,40.208a7.643,7.643,0,0,1,1.869,2.083l2.4-6.636a19.25,19.25,0,0,0-7.663-1.5c-6.43,0-9.74,2.641-10.12,8.073a6.143,6.143,0,0,0,.753,3.69,7.738,7.738,0,0,0,3.144,2.656l2.142,1.146a2.817,2.817,0,0,1,1.077.9,2.016,2.016,0,0,1,.318,1.285,1.826,1.826,0,0,1-.645,1.3,2.138,2.138,0,0,1-1.43.492,4.753,4.753,0,0,1-2.92-1.185,7.887,7.887,0,0,1-1.872-2.163l-2.4,7.042a22.679,22.679,0,0,0,8.8,1.659c6.457,0,9.779-2.624,10.157-8.024a6.4,6.4,0,0,0-.453-3.09,5.663,5.663,0,0,0-1.656-2.138,16.993,16.993,0,0,0-3.218-1.877,15.547,15.547,0,0,1-2.7-1.531,1.8,1.8,0,0,1-.632-1.558,1.631,1.631,0,0,1,.668-1.228h0a2.322,2.322,0,0,1,1.437-.436,4.86,4.86,0,0,1,2.941,1.048" transform="translate(-189.417 -17.532)" fill="#701f21"/>
        <path id="路径_19" data-name="路径 19" d="M438.365,35.024l-3.222,7.565-2.392-7.565h-5.7L423.5,42.618l-1.972-7.595h-8.145l5.4,24.092h6.125l4.109-10.824,2.837,10.824h6.129l8.4-24.092Z" transform="translate(-212.221 -17.98)" fill="#701f21"/>
        <path id="路径_20" data-name="路径 20" d="M239.327,106.787c.221.489.448,1.042.68,1.655l.118.312,1.329-.575-.1-.28a15.658,15.658,0,0,0-1.517-3.256l-.154-.24-1.281.64.179.295c.1.165.2.345.3.54h-2.145q-.049-.575-.076-1.129l-.013-.272-1.434-.154.008.363c.009.378.032.777.07,1.192h-8.569a.512.512,0,0,0-.54.541v6.905a17.144,17.144,0,0,1-.266,3.111,10.342,10.342,0,0,1-1.094,2.827l-.167.309,1.354.572.139-.249a12.784,12.784,0,0,0,1.473-6.313v-.875h2.018a19.169,19.169,0,0,1-1.046,2.125.5.5,0,0,0-.093.416.45.45,0,0,0,.241.3l2.275,1.365a13.037,13.037,0,0,1-3.663,2.16l-.394.159.931,1.181.229-.108a15.858,15.858,0,0,0,4.123-2.671l1.536.915.175-.2q.266-.3.567-.6l.3-.3-1.578-.884a9.267,9.267,0,0,0,1.621-3.858h1.407c.187.907.411,1.794.666,2.642a10.722,10.722,0,0,1-4.573,4.054l-.35.175.912,1.156.231-.111a10.6,10.6,0,0,0,4.361-3.479,12.2,12.2,0,0,0,1.4,2.869,1.31,1.31,0,0,0,.836.487.884.884,0,0,0,.658-.2c.275-.283.672-.956.959-3.53l.03-.273-1.429-.373-.021.391a11.163,11.163,0,0,1-.277,2.094c-.043-.081-.093-.184-.155-.316-.355-.785-.714-1.717-1.07-2.773a17.358,17.358,0,0,0,1.813-5.819l.041-.306-1.428-.242-.046.323a19.209,19.209,0,0,1-.948,3.951c-.128-.571-.25-1.164-.364-1.775l0-.122c-.329-1.88-.545-3.294-.645-4.214h2.457Zm-5.9,5.92a7.394,7.394,0,0,1-1.4,3.177l-1.866-1.058a16.514,16.514,0,0,0,.961-2.119Zm-1.525-2.66h3.365v-1.439H228v1.439h2.469c-.094.44-.2.849-.306,1.221h-2.532v-3.95h7.8c.117,1.222.31,2.554.57,3.943v.008h-4.42Z" transform="translate(-115.335 -53.557)" fill="#701f21"/>
        <path id="路径_21" data-name="路径 21" d="M275.664,104.364h-1.507v3.991h-7.5v1.439h7.5v8.726h-6.686v1.439h14.844v-1.439h-6.652v-8.726h7.4v-1.439h-7.4Z" transform="translate(-136.893 -53.578)" fill="#701f21"/>
        <path id="路径_22" data-name="路径 22" d="M321.659,106.787c.221.489.448,1.042.68,1.655l.118.312,1.33-.575-.1-.28a15.683,15.683,0,0,0-1.516-3.256l-.155-.24-1.281.64.179.295q.149.247.3.54h-2.144q-.049-.575-.076-1.129l-.013-.272-1.434-.154.008.363c.009.378.032.777.07,1.192h-8.568a.512.512,0,0,0-.541.541v6.905a17.053,17.053,0,0,1-.267,3.111,10.325,10.325,0,0,1-1.093,2.827l-.167.309,1.354.572.139-.249a12.784,12.784,0,0,0,1.473-6.313v-.875h2.018a19.166,19.166,0,0,1-1.046,2.125.5.5,0,0,0-.093.416.45.45,0,0,0,.242.3l2.275,1.365a13.022,13.022,0,0,1-3.663,2.16l-.394.159.931,1.181.229-.108a15.853,15.853,0,0,0,4.123-2.671l1.536.915.175-.2q.266-.3.567-.6l.3-.3-1.577-.884a9.285,9.285,0,0,0,1.621-3.858h1.407c.187.907.411,1.794.666,2.642A10.725,10.725,0,0,1,314.7,119.4l-.35.175.913,1.156.23-.111a10.6,10.6,0,0,0,4.361-3.479,12.217,12.217,0,0,0,1.4,2.869,1.314,1.314,0,0,0,.837.487.887.887,0,0,0,.659-.2c.274-.283.672-.956.958-3.53l.031-.273-1.43-.373-.02.391a11.118,11.118,0,0,1-.277,2.094c-.042-.081-.093-.184-.155-.316-.355-.785-.714-1.717-1.07-2.773a17.346,17.346,0,0,0,1.811-5.819l.042-.306-1.428-.242-.046.323a19.18,19.18,0,0,1-.947,3.951c-.129-.571-.25-1.164-.365-1.775l0-.122c-.328-1.88-.544-3.294-.644-4.214h2.457Zm-5.9,5.92a7.377,7.377,0,0,1-1.4,3.177l-1.866-1.058a16.45,16.45,0,0,0,.961-2.119Zm-1.525-2.66H317.6v-1.439h-7.272v1.439H312.8c-.094.44-.2.849-.306,1.221h-2.532v-3.95h7.8c.118,1.222.31,2.554.571,3.943v.008h-4.42Z" transform="translate(-157.603 -53.557)" fill="#701f21"/>
        <path id="路径_23" data-name="路径 23" d="M357.676,107.275h3.991v1.563h-2.82a.5.5,0,0,0-.523.524v10.95a.5.5,0,0,0,.523.541h9.859a.512.512,0,0,0,.54-.541v-10.95a.5.5,0,0,0-.54-.524h-2.734v-1.563h3.889v-1.439H357.676Zm8.3,3h1.836v3.746h-1.836Zm-4.3,1.25a2.881,2.881,0,0,1-.982,2.3,3.789,3.789,0,0,1-.834.534l-.089.043v-4.128h1.9Zm-1.177,4.139.221-.127a4.5,4.5,0,0,0,2.394-4.012v-1.25h1.427v4.474a.669.669,0,0,0,.694.711h2.581v1.221h-8.044v-1.812Zm2.615-8.39h1.427v1.563h-1.427Zm-3.343,10.847h8.044v1.29h-8.044Z" transform="translate(-183.622 -54.334)" fill="#701f21"/>
        <path id="路径_24" data-name="路径 24" d="M351.789,116.72l.263.22.848-1.182-.221-.19a15.745,15.745,0,0,0-2.752-1.949l-.258-.138-.792,1.219.307.163a16.217,16.217,0,0,1,2.606,1.857" transform="translate(-179.104 -58.258)" fill="#701f21"/>
        <path id="路径_25" data-name="路径 25" d="M351.6,123.578a12.559,12.559,0,0,1-2.629,5.507l-.25.305,1.309.67.164-.192a15.059,15.059,0,0,0,2.795-5.958l.082-.313-1.4-.344Z" transform="translate(-179.026 -63.274)" fill="#701f21"/>
        <path id="路径_26" data-name="路径 26" d="M351.211,105.354l-.245-.151-.882,1.157.3.185a15.936,15.936,0,0,1,2.254,1.8l.242.224.941-1.092-.218-.209a14.7,14.7,0,0,0-2.391-1.917" transform="translate(-179.724 -54.009)" fill="#701f21"/>
        <path id="路径_27" data-name="路径 27" d="M402.418,123.469a24.066,24.066,0,0,0,3.6-1.986l.259-.179-.8-1.195-.267.182a27.6,27.6,0,0,1-4.4,2.32,9.246,9.246,0,0,1-1.841-1.858h5.144a.538.538,0,0,0,.575-.574v-4.673a.551.551,0,0,0-.575-.558H393.629a.512.512,0,0,0-.54.541v8.934q-.71.061-1.49.147l-.309.034.121,1.425.314-.023a27.557,27.557,0,0,0,6.3-1.089l.3-.1-.427-1.371-.3.092a24.289,24.289,0,0,1-3.068.681v-3.469h2.707c1.831,3.018,4.855,4.732,9.016,5.1.105,0,.222.005.349.016l.26.021.4-1.386-.381-.038a16.525,16.525,0,0,1-4.46-1m-7.891-7.081h8.727v.744h-8.727Zm8.727,2.927h-8.727v-.744h8.727Z" transform="translate(-200.879 -59.011)" fill="#701f21"/>
        <path id="路径_28" data-name="路径 28" d="M398.909,104.009l.246-.246-1.254-.726-.169.23c-1.182,1.609-3.785,3.068-7.738,4.337l-.38.122.781,1.321.248-.09a37.79,37.79,0,0,0,3.871-1.619v.751h7.135v-.912a29.6,29.6,0,0,0,3.863,1.578l.253.083.746-1.372-.39-.105a22.476,22.476,0,0,1-7.212-3.352m-3.105,2.641a11.365,11.365,0,0,0,2.221-1.618,27.543,27.543,0,0,0,2.61,1.618Z" transform="translate(-200.018 -52.897)" fill="#701f21"/>
        <path id="路径_29" data-name="路径 29" d="M436.263,117.74v-3.249h2.66v-1.439h-2.66v-2.313h2.263c-.06.033-.121.065-.183.1l-.353.179.92,1.134.227-.109.051-.024a.434.434,0,0,0-.064.232v5.219a.415.415,0,0,0,.42.438H446.6a.424.424,0,0,0,.438-.438v-5.219a.416.416,0,0,0-.438-.421H439.54a6.519,6.519,0,0,0,2.4-2.413v1.51l.216.073c1.922.653,3.212.743,3.942.273.587-.377.872-1.35.9-3.066,0-.725.011-1.535.034-2.438a1.076,1.076,0,0,0-.044-.368.513.513,0,0,0-.248-.315l-.087-.036c-.049-.012-.1-.024-.164-.037L438.764,105v1.023h-2.5v-2.08h-1.438v2.08h-2.968v1.439h2.968V109.3h-3.582v1.439h3.582v5.829a7.927,7.927,0,0,1-1.146-1.753,22.986,22.986,0,0,0,.145-2.536v-.292l-1.445-.123.006.353a16.942,16.942,0,0,1-1.354,7.216l-.124.278,1.253.626.135-.3a16.641,16.641,0,0,0,1.031-3.1,7.013,7.013,0,0,0,4.816,2.934c1,.113,2.177.189,3.5.224h5.432l.367-1.439h-6.085a12.968,12.968,0,0,1-5.093-.906m9.34-1.277h-5.042v-3.2H445.6Zm-3.615-7.141a10.106,10.106,0,0,0,1.056-2.881h2.54a21.151,21.151,0,0,1-.06,2.727c-.033.174-.065.327-.093.439a1.086,1.086,0,0,1-.161.354c-.112.084-.652.3-2.909-.506Zm-3.2-1.858V106.44h2.787a6.2,6.2,0,0,1-2.514,3.972V109.3h-2.8v-1.836Z" transform="translate(-221.217 -53.362)" fill="#701f21"/>
        <path id="路径_30" data-name="路径 30" d="M488.964,107.327v-1.439h-7.573v-1.944h-1.438v1.944h-7.47v1.439h7.47V109.5h-5.839a.5.5,0,0,0-.506.507v9.648h1.438v-8.715h4.906v9.619h1.438v-9.619H486.5v6.674c0,.018,0,.055-.066.1-.229.136-.92.305-2.983-.09l-.379-.073v1.532l.254.052c1.983.409,3.325.346,4.1-.185a1.172,1.172,0,0,0,.514-1.014V110.01a.505.505,0,0,0-.523-.507h-6.026v-2.177Z" transform="translate(-242.56 -53.362)" fill="#701f21"/>
      </g>
    </g>
  </g>
</svg>
